<svg width="20" height="20" viewBox="0 0 20 20" fill="none" xmlns="http://www.w3.org/2000/svg">
<path fill-rule="evenodd" clip-rule="evenodd" d="M15.4471 2.83234C15.4471 2.37265 15.0874 2 14.6436 2C14.1998 2 13.84 2.37265 13.84 2.83234V3.94271L6.25 3.94275V2.83243C6.25 2.37274 5.89023 2.00009 5.44643 2.00009C5.00263 2.00009 4.64286 2.37274 4.64286 2.83243V3.94275C3.45939 3.94275 2.5 4.93649 2.5 6.16232V15.7804C2.5 17.0063 3.45939 18 4.64286 18H15.3571C16.5406 18 17.5 17.0063 17.5 15.7804V6.16232C17.5 4.96771 16.5889 3.99352 15.4471 3.94467L15.4471 3.94271V2.83234ZM4.91071 8.38188C4.91071 7.9222 5.27049 7.54955 5.71429 7.54955H14.6429C15.0867 7.54955 15.4464 7.9222 15.4464 8.38188C15.4464 8.84157 15.0867 9.21422 14.6429 9.21422H5.71429C5.27049 9.21422 4.91071 8.84157 4.91071 8.38188Z" fill="#EF6820"/>
</svg>
