<svg width="36" height="36" viewBox="0 0 36 36" fill="none" xmlns="http://www.w3.org/2000/svg">
<path d="M26.125 12.375V21.75C26.1245 21.839 26.105 21.9268 26.0678 22.0077C26.0306 22.0885 25.9766 22.1605 25.9094 22.2188C24.7156 23.2524 23.5742 23.625 22.4859 23.625C21.0086 23.625 19.6289 22.9422 18.3453 22.3086C16.2711 21.2813 14.468 20.3914 12.375 22.0445V25.5C12.375 25.6658 12.3092 25.8247 12.1919 25.942C12.0747 26.0592 11.9158 26.125 11.75 26.125C11.5842 26.125 11.4253 26.0592 11.3081 25.942C11.1908 25.8247 11.125 25.6658 11.125 25.5V12.375C11.1256 12.286 11.1452 12.1981 11.1825 12.1173C11.2199 12.0364 11.274 11.9645 11.3414 11.9063C14.1539 9.47033 16.6781 10.718 18.9031 11.8188C21.0469 12.8797 22.9055 13.7969 25.0906 11.9063C25.1809 11.828 25.2918 11.7772 25.4101 11.76C25.5284 11.7428 25.6491 11.7599 25.758 11.8093C25.8669 11.8586 25.9593 11.9381 26.0243 12.0384C26.0894 12.1387 26.1243 12.2555 26.125 12.375Z" fill="#3864FF"/>
</svg>
