<svg width="14" height="14" viewBox="0 0 14 14" fill="none" xmlns="http://www.w3.org/2000/svg">
<path d="M12.625 7.75C13.0392 7.75 13.375 7.41422 13.375 7C13.375 6.58579 13.0392 6.25 12.625 6.25V7.75ZM12.25 7C12.25 9.8995 9.8995 12.25 7 12.25V13.75C10.7279 13.75 13.75 10.7279 13.75 7H12.25ZM7 12.25C4.10051 12.25 1.75 9.8995 1.75 7H0.25C0.25 10.7279 3.27208 13.75 7 13.75V12.25ZM1.75 7C1.75 4.10051 4.10051 1.75 7 1.75V0.25C3.27208 0.25 0.25 3.27208 0.25 7H1.75ZM7 1.75C9.8995 1.75 12.25 4.10051 12.25 7H13.75C13.75 3.27208 10.7279 0.25 7 0.25V1.75ZM7 12.25C6.88571 12.25 6.71771 12.2002 6.49953 11.9893C6.27774 11.7749 6.04374 11.4284 5.83096 10.942C5.40639 9.97157 5.125 8.57843 5.125 7H3.625C3.625 8.73528 3.93124 10.3421 4.45673 11.5433C4.71898 12.1427 5.05063 12.6749 5.45693 13.0677C5.86685 13.464 6.38941 13.75 7 13.75V12.25ZM5.125 7C5.125 5.42157 5.40639 4.02843 5.83096 3.05797C6.04374 2.57163 6.27774 2.22515 6.49953 2.01072C6.71771 1.79979 6.88571 1.75 7 1.75V0.25C6.38941 0.25 5.86685 0.536 5.45693 0.932298C5.05063 1.32511 4.71898 1.8573 4.45673 2.45675C3.93124 3.65786 3.625 5.26472 3.625 7H5.125ZM7 13.75C7.61059 13.75 8.13315 13.464 8.54307 13.0677C8.94937 12.6749 9.28102 12.1427 9.54327 11.5433C10.0688 10.3421 10.375 8.73528 10.375 7H8.875C8.875 8.57843 8.59361 9.97157 8.16904 10.942C7.95626 11.4284 7.72226 11.7749 7.50047 11.9893C7.28229 12.2002 7.11429 12.25 7 12.25V13.75ZM10.375 7C10.375 5.26472 10.0688 3.65786 9.54327 2.45675C9.28102 1.8573 8.94937 1.32511 8.54307 0.932298C8.13315 0.536 7.61059 0.25 7 0.25V1.75C7.11429 1.75 7.28229 1.79979 7.50047 2.01072C7.72226 2.22515 7.95626 2.57163 8.16904 3.05797C8.59361 4.02843 8.875 5.42157 8.875 7H10.375ZM1 7.75L12.625 7.75V6.25L1 6.25L1 7.75Z" fill="#4D5761"/>
</svg>
