<svg width="28" height="28" viewBox="0 0 28 28" fill="none" xmlns="http://www.w3.org/2000/svg">
<path d="M9.00004 12.3333C8.08337 12.3333 7.33337 13.0833 7.33337 13.9999C7.33337 14.9166 8.08337 15.6666 9.00004 15.6666C9.91671 15.6666 10.6667 14.9166 10.6667 13.9999C10.6667 13.0833 9.91671 12.3333 9.00004 12.3333ZM19 12.3333C18.0834 12.3333 17.3334 13.0833 17.3334 13.9999C17.3334 14.9166 18.0834 15.6666 19 15.6666C19.9167 15.6666 20.6667 14.9166 20.6667 13.9999C20.6667 13.0833 19.9167 12.3333 19 12.3333ZM14 12.3333C13.0834 12.3333 12.3334 13.0833 12.3334 13.9999C12.3334 14.9166 13.0834 15.6666 14 15.6666C14.9167 15.6666 15.6667 14.9166 15.6667 13.9999C15.6667 13.0833 14.9167 12.3333 14 12.3333Z" fill="#121212"/>
</svg>
