<svg width="24" height="24" viewBox="0 0 24 24" fill="none" xmlns="http://www.w3.org/2000/svg">
<path d="M0 12C0 5.37258 5.37258 0 12 0C18.6274 0 24 5.37258 24 12C24 18.6274 18.6274 24 12 24C5.37258 24 0 18.6274 0 12Z" fill="black" fill-opacity="0.37"/>
<path fill-rule="evenodd" clip-rule="evenodd" d="M12.0001 18.4001C15.5347 18.4001 18.4001 15.5347 18.4001 12.0001C18.4001 8.46548 15.5347 5.6001 12.0001 5.6001C8.46548 5.6001 5.6001 8.46548 5.6001 12.0001C5.6001 15.5347 8.46548 18.4001 12.0001 18.4001ZM14.372 12.3467C14.6386 12.1927 14.6386 11.8078 14.372 11.6539L10.772 9.57542C10.5053 9.42145 10.172 9.6139 10.172 9.92182L10.172 14.0787C10.172 14.3867 10.5053 14.5791 10.772 14.4252L14.372 12.3467Z" fill="white"/>
</svg>
