<svg width="20" height="20" viewBox="0 0 20 20" fill="none" xmlns="http://www.w3.org/2000/svg">
<path fill-rule="evenodd" clip-rule="evenodd" d="M16.0004 17.3H4.00037C2.8958 17.3 2.00037 16.4045 2.00037 15.3V7.09995C2.00037 5.99538 2.8958 5.09995 4.00037 5.09995H6.00037L7.15919 3.11339C7.30853 2.85738 7.58262 2.69995 7.87901 2.69995H12.1217C12.4181 2.69995 12.6922 2.85738 12.8415 3.11339L14.0004 5.09995H16.0004C17.1049 5.09995 18.0004 5.99538 18.0004 7.09995V15.3C18.0004 16.4045 17.1049 17.3 16.0004 17.3ZM10.0004 13.7C11.6572 13.7 13.0004 12.3568 13.0004 10.7C13.0004 9.0431 11.6572 7.69995 10.0004 7.69995C8.34351 7.69995 7.00037 9.0431 7.00037 10.7C7.00037 12.3568 8.34351 13.7 10.0004 13.7Z" fill="#EF6820"/>
</svg>
