<svg width="12" height="16" viewBox="0 0 12 16" fill="none" xmlns="http://www.w3.org/2000/svg">
<path fill-rule="evenodd" clip-rule="evenodd" d="M4.88258 0.559098C5.5864 0.207189 6.41483 0.207189 7.11864 0.559098L12.0006 3.00008V9.69008C12.0006 12.0001 9.86528 13.5594 6.00061 16.0001C2.13594 13.5594 0.000610352 11.5001 0.000610352 9.69008V3.00008L4.88258 0.559098ZM9.09052 6.41224C9.41596 6.08681 9.41596 5.55917 9.09052 5.23373C8.76508 4.90829 8.23744 4.90829 7.91201 5.23373L5.50126 7.64448L4.59052 6.73373C4.26508 6.40829 3.73744 6.40829 3.41201 6.73373C3.08657 7.05917 3.08657 7.58681 3.41201 7.91224L4.91201 9.41224C5.23744 9.73768 5.76508 9.73768 6.09052 9.41224L9.09052 6.41224Z" fill="white"/>
</svg>
