<svg width="21" height="20" viewBox="0 0 21 20" fill="none" xmlns="http://www.w3.org/2000/svg">
<path fill-rule="evenodd" clip-rule="evenodd" d="M2.33325 7.33325C2.33325 5.12411 4.12411 3.33325 6.33325 3.33325H9.99992C12.2091 3.33325 13.9999 5.12411 13.9999 7.33325V12.6666C13.9999 14.8757 12.2091 16.6666 9.99992 16.6666H6.33325C4.12412 16.6666 2.33325 14.8757 2.33325 12.6666V7.33325ZM5.87492 9.99992C5.87492 9.65474 6.15474 9.37492 6.49992 9.37492H9.83325C10.1784 9.37492 10.4583 9.65474 10.4583 9.99992C10.4583 10.3451 10.1784 10.6249 9.83325 10.6249H6.49992C6.15474 10.6249 5.87492 10.3451 5.87492 9.99992ZM15.5408 12.9769L15.2499 12.6665V7.3332L15.5408 7.02287C16.7809 5.70017 18.9999 6.57768 18.9999 8.39076V11.609C18.9999 13.422 16.7809 14.2996 15.5408 12.9769Z" fill="#30E0A1"/>
</svg>
